<?xml version="1.0" encoding="utf-8"?>
<!-- Generator: Adobe Illustrator 27.0.1, SVG Export Plug-In . SVG Version: 6.00 Build 0)  -->
<svg version="1.1" id="Layer_1" xmlns="http://www.w3.org/2000/svg" xmlns:xlink="http://www.w3.org/1999/xlink" x="0px" y="0px"
	 viewBox="0 0 500 400" style="enable-background:new 0 0 500 400;" xml:space="preserve">
<style type="text/css">
	.st0{fill:#32A852;stroke:#231F20;stroke-miterlimit:10;}
	.st1{font-family:'ArialMT';}
	.st2{font-size:101.365px;}
	.st3{fill:none;}
	.st4{fill:#4689CC;}
</style>
<rect y="189.2" class="st0" width="500" height="136.9"/>
<text transform="matrix(0.8769 0 0 1 0.8896 289.2871)" class="st1 st2">Šajeta d.o.o.</text>
<line class="st3" x1="158.4" y1="189.2" x2="357.4" y2="189.2"/>
<polygon points="257.9,216.2 258.2,215.7 258,215.7 "/>
<g>
	<polygon class="st4" points="250.2,136.7 243.6,191.3 243.8,191.3 276.9,136.7 	"/>
	<polygon class="st4" points="290.2,96.1 245.1,96.1 239.4,150.6 262.2,150.6 	"/>
	<polygon class="st4" points="293.4,56.8 235.2,56.8 230.3,111.4 269.2,111.4 	"/>
</g>
<g>
	<polygon class="st4" points="345.9,141.2 319.8,189.6 320.1,189.7 370.8,151 	"/>
	<polygon class="st4" points="398,117.9 356,101.5 330.8,150.2 351.9,158.5 	"/>
	<polygon class="st4" points="415.2,82.5 361.1,61.4 336.7,110.4 372.8,124.6 	"/>
</g>
<g>
	<polygon class="st4" points="154.3,141.1 175.8,188.1 176.1,188 177.4,128.7 	"/>
	<polygon class="st4" points="168.5,89.8 129.5,110.8 151.9,157.3 171.5,146.8 	"/>
	<polygon class="st4" points="151.6,56.8 101.2,83.9 124.4,130 158,112 	"/>
</g>
</svg>
